<?xml version="1.0" encoding="utf-8"?><svg width="49" height="22" viewBox="0 0 49 22" fill="none" xmlns="http://www.w3.org/2000/svg">
<path d="M34.6106 11.2878C34.6106 11.6256 34.6703 11.9375 34.7897 12.2234C34.9223 12.4963 35.0882 12.7367 35.2872 12.9446C35.4995 13.1525 35.7449 13.3149 36.0235 13.4319C36.3154 13.5488 36.6205 13.6073 36.9389 13.6073C37.2573 13.6073 37.5558 13.5488 37.8345 13.4319C38.1263 13.3149 38.3718 13.1525 38.5708 12.9446C38.783 12.7367 38.9489 12.4963 39.0683 12.2234C39.201 11.9375 39.2673 11.6321 39.2673 11.3073C39.2673 10.9954 39.201 10.703 39.0683 10.4302C38.9489 10.1443 38.783 9.89738 38.5708 9.68947C38.3718 9.48156 38.1263 9.31913 37.8345 9.20218C37.5558 9.08523 37.2573 9.02675 36.9389 9.02675C36.6205 9.02675 36.3154 9.08523 36.0235 9.20218C35.7449 9.31913 35.4995 9.48156 35.2872 9.68947C35.0882 9.89738 34.9223 10.1378 34.7897 10.4107C34.6703 10.6835 34.6106 10.9759 34.6106 11.2878ZM30.8096 11.2488C30.8096 10.5081 30.9621 9.81941 31.2673 9.18268C31.5724 8.53296 31.997 7.9742 32.5409 7.5064C33.0849 7.0256 33.7283 6.64876 34.4713 6.37588C35.2275 6.10299 36.05 5.96655 36.9389 5.96655C37.8146 5.96655 38.6238 6.10299 39.3668 6.37588C40.123 6.63577 40.7731 7.00611 41.317 7.48691C41.8743 7.95471 42.3054 8.51997 42.6106 9.18268C42.9157 9.83241 43.0683 10.5536 43.0683 11.3463C43.0683 12.1389 42.9091 12.8666 42.5907 13.5293C42.2855 14.1791 41.861 14.7443 41.317 15.2251C40.7731 15.6929 40.1164 16.0568 39.3469 16.3167C38.5907 16.5765 37.7681 16.7065 36.8792 16.7065C36.0036 16.7065 35.1943 16.5765 34.4514 16.3167C33.7084 16.0568 33.065 15.6864 32.521 15.2056C31.9903 14.7248 31.5724 14.1531 31.2673 13.4904C30.9621 12.8146 30.8096 12.0675 30.8096 11.2488Z" fill="#545454"/>
<path d="M20.8579 11.2223C20.8579 11.5493 20.9172 11.8567 21.0358 12.1445C21.1545 12.4191 21.3127 12.6611 21.5104 12.8704C21.7213 13.0797 21.9652 13.2431 22.242 13.3609C22.5321 13.4786 22.8418 13.5374 23.1714 13.5374C23.4878 13.5374 23.7844 13.4786 24.0612 13.3609C24.3513 13.2431 24.5951 13.0797 24.7929 12.8704C25.0038 12.6611 25.1686 12.4191 25.2872 12.1445C25.419 11.8698 25.485 11.5755 25.485 11.2616C25.485 10.9477 25.419 10.6534 25.2872 10.3787C25.1686 10.091 25.0038 9.84244 24.7929 9.63317C24.5951 9.42389 24.3513 9.2604 24.0612 9.14268C23.7844 9.02496 23.4878 8.9661 23.1714 8.9661C22.855 8.9661 22.5518 9.02496 22.2618 9.14268C21.985 9.2604 21.7411 9.42389 21.5302 9.63317C21.3324 9.84244 21.1677 10.0844 21.0358 10.3591C20.9172 10.6207 20.8579 10.9084 20.8579 11.2223ZM25.3663 1.22622L26.6706 0H28.9652V16.2842H25.3663V15.1659C24.6017 16.1207 23.5669 16.5981 22.2618 16.5981C21.5236 16.5981 20.8447 16.4607 20.2251 16.1861C19.6055 15.9114 19.065 15.5321 18.6036 15.0481C18.1423 14.5642 17.7797 13.9952 17.5161 13.3412C17.2656 12.6873 17.1404 11.981 17.1404 11.2223C17.1404 10.503 17.259 9.82282 17.4963 9.18192C17.7468 8.52793 18.0961 7.95897 18.5443 7.47502C18.9925 6.99107 19.5264 6.61176 20.146 6.33709C20.7788 6.04934 21.4709 5.90546 22.2223 5.90546C23.4878 5.90546 24.5358 6.34363 25.3663 7.21997V1.22622Z" fill="#545454"/>
<path d="M14.9707 6.29224V16.3813H11.2822V6.29224H14.9707Z" fill="#545454"/>
<path d="M8.89581 6.29224V20.193L7.59161 21.48H5.42432V6.29224H8.89581Z" fill="#545454"/>
<path d="M7.15649 0.390381L9.19818 2.43206L7.15649 4.47375L5.11481 2.43206L7.15649 0.390381Z" fill="#545454"/>
<rect x="46.3423" y="11.115" width="2.88738" height="2.88738" transform="rotate(45 46.3423 11.115)" fill="#545454"/>
<path d="M13.1267 0.390381L15.1684 2.43206L13.1267 4.47375L11.085 2.43206L13.1267 0.390381Z" fill="#545454"/>
<path fill-rule="evenodd" clip-rule="evenodd" d="M0 2.33968L1.0306 1.302H4.33937V3.37735H2.0612V18.3199H4.33937V20.3952H1.0306L0 19.3575V2.33968Z" fill="#9146FF"/>
<path fill-rule="evenodd" clip-rule="evenodd" d="M47.3534 16.4895V19.3101L46.3198 20.3949H10.1433V18.2252H45.2862V16.4895H47.3534Z" fill="#9750FF"/>
</svg>
